<?xml version="1.0" standalone="no"?>
<!DOCTYPE svg PUBLIC "-//W3C//DTD SVG 20010904//EN"
 "http://www.w3.org/TR/2001/REC-SVG-20010904/DTD/svg10.dtd">
<svg version="1.0" xmlns="http://www.w3.org/2000/svg"
 width="1024.000000pt" height="1024.000000pt" viewBox="0 0 1024.000000 1024.000000"
 preserveAspectRatio="xMidYMid meet">
<metadata>
Created by potrace 1.14, written by Peter Selinger 2001-2017
</metadata>
<g transform="translate(0.000000,1024.000000) scale(0.100000,-0.100000)"
fill="#000000" stroke="none">
<path d="M4950 8773 c-481 -46 -836 -142 -1229 -334 -265 -130 -414 -225 -671
-428 -381 -301 -653 -635 -882 -1081 -235 -458 -361 -1034 -345 -1584 8 -269
45 -491 138 -821 74 -262 218 -571 388 -835 154 -239 469 -586 704 -776 269
-216 670 -433 1026 -555 355 -122 661 -173 1041 -171 666 3 1260 186 1850 570
398 259 784 677 1026 1112 167 300 231 461 320 808 78 307 98 468 98 767 0
283 -13 426 -59 651 -93 449 -235 783 -520 1219 -334 511 -818 913 -1440 1195
-187 85 -540 193 -735 225 -227 37 -545 54 -710 38z m325 -253 c300 -19 486
-54 777 -150 464 -153 911 -434 1237 -778 149 -157 214 -236 310 -377 271
-398 424 -762 511 -1217 62 -326 65 -685 9 -1028 -104 -638 -382 -1172 -859
-1651 -145 -146 -247 -231 -405 -338 -397 -270 -840 -444 -1300 -512 -353 -51
-808 -29 -1165 57 -448 108 -950 371 -1291 676 -155 138 -318 312 -413 442
-296 402 -457 765 -550 1242 -72 372 -75 693 -10 1079 29 176 34 197 84 376
37 131 115 339 161 430 100 199 238 415 366 578 89 111 281 312 399 415 166
145 452 335 674 446 372 187 832 304 1255 318 22 1 117 -3 210 -8z"/>
<path d="M4854 8225 c-526 -68 -964 -250 -1414 -589 -119 -90 -343 -311 -446
-441 -165 -209 -306 -432 -376 -598 -16 -39 -38 -90 -48 -112 -66 -147 -131
-396 -167 -640 -24 -159 -28 -209 -28 -430 0 -332 32 -538 126 -811 146 -425
350 -747 683 -1080 231 -230 400 -353 676 -493 375 -190 701 -281 1123 -310
199 -15 459 10 747 71 205 43 433 127 657 243 191 99 234 127 413 262 588 444
987 1152 1060 1882 25 258 1 622 -59 890 -109 480 -342 910 -707 1306 -299
324 -706 587 -1128 729 -169 57 -408 109 -575 126 -137 13 -411 11 -537 -5z
m543 -256 c437 -48 859 -217 1199 -481 469 -364 778 -815 928 -1353 65 -234
88 -411 89 -670 1 -435 -78 -776 -263 -1132 -166 -320 -363 -561 -655 -800
-195 -159 -365 -263 -596 -362 -151 -65 -233 -91 -409 -134 -207 -51 -304 -61
-560 -61 -512 0 -899 111 -1358 387 -214 129 -436 327 -607 542 -217 273 -326
469 -424 763 -85 254 -116 491 -108 837 9 419 71 694 231 1030 93 194 187 337
362 550 263 321 675 608 1099 767 158 58 406 110 635 132 68 6 326 -2 437 -15z"/>
<path d="M4985 7539 c-291 -42 -533 -180 -715 -405 -72 -91 -102 -140 -150
-253 -66 -152 -72 -199 -68 -516 l3 -280 -52 -48 c-65 -61 -205 -260 -248
-352 -146 -314 -181 -671 -99 -994 52 -206 159 -432 269 -568 80 -100 226
-244 308 -304 176 -131 385 -227 587 -269 145 -31 382 -38 511 -16 210 35 443
129 630 252 108 71 273 226 348 327 159 217 258 445 307 712 20 111 14 398
-11 512 -55 252 -178 490 -356 689 l-54 61 -3 214 c-2 217 -14 377 -34 459
-22 88 -89 236 -144 317 -33 49 -97 122 -154 175 -248 234 -552 334 -875 287z
m313 -265 c307 -62 534 -275 613 -574 19 -73 48 -365 36 -376 -3 -3 -34 10
-69 29 -82 46 -266 121 -357 146 -147 41 -274 54 -456 48 -150 -5 -185 -10
-300 -40 -151 -39 -302 -101 -397 -163 l-68 -44 0 129 c0 171 14 267 56 374
43 112 88 179 172 259 120 112 244 179 395 212 87 20 281 19 375 0z m60 -1000
c187 -38 418 -143 553 -252 148 -119 315 -355 386 -543 59 -156 77 -255 77
-419 0 -206 -28 -343 -110 -539 -133 -316 -436 -585 -780 -689 -157 -48 -209
-57 -359 -56 -127 0 -154 4 -287 37 -160 39 -229 67 -364 147 -204 120 -350
272 -473 494 -40 72 -94 234 -115 346 -20 106 -21 354 -1 476 41 251 161 480
348 661 187 181 389 285 656 338 96 19 373 19 469 -1z"/>
<path d="M5002 5594 c-29 -7 -66 -21 -83 -30 -81 -41 -174 -162 -205 -264 -26
-86 -12 -199 38 -307 31 -68 124 -157 186 -177 l49 -17 6 -273 c6 -296 9 -313
63 -355 16 -13 41 -21 64 -21 31 0 44 7 74 41 20 22 41 51 46 65 6 14 10 146
10 294 0 263 0 269 20 265 19 -4 140 87 140 105 0 4 20 35 45 68 110 146 91
357 -43 495 -26 26 -66 59 -89 72 -88 52 -216 68 -321 39z m205 -260 c68 -51
92 -139 58 -215 -36 -78 -146 -113 -225 -70 -81 43 -123 148 -87 217 19 36 65
80 92 87 43 12 135 1 162 -19z"/>
<path d="M4199 5195 c-20 -13 -39 -31 -43 -40 -26 -68 23 -135 97 -135 49 0
78 18 101 63 19 38 11 60 -35 102 -46 41 -72 44 -120 10z"/>
<path d="M5933 5200 c-99 -60 -50 -190 71 -190 27 0 44 8 71 35 39 40 44 71
19 115 -35 58 -103 76 -161 40z"/>
<path d="M7054 5277 c-66 -60 -56 -159 21 -207 42 -26 91 -22 142 13 65 44 64
122 -2 192 -28 30 -39 35 -79 35 -38 0 -52 -6 -82 -33z"/>
<path d="M3024 5266 c-28 -28 -34 -41 -34 -77 0 -98 88 -157 170 -114 37 19
80 82 80 115 -1 63 -58 110 -133 110 -42 0 -54 -5 -83 -34z"/>
</g>
</svg>
